<?xml version="1.0" encoding="UTF-8"?>
<!--Generator: Apple Native CoreSVG 123-->
<!DOCTYPE svg
PUBLIC "-//W3C//DTD SVG 1.1//EN"
       "http://www.w3.org/Graphics/SVG/1.1/DTD/svg11.dtd">
<svg xmlns="http://www.w3.org/2000/svg" xmlns:xlink="http://www.w3.org/1999/xlink" version="1.1" width="130" height="130">
<g xmlns="http://www.w3.org/2000/svg" id="Regular-L" transform="matrix(1 0 0 1 -10 100)">
   <path d="M 74.8535 28.3691 C 109.668 28.3691 138.477 -0.390625 138.477 -35.2051 C 138.477 -70.0195 109.619 -98.7793 74.8047 -98.7793 C 40.0391 -98.7793 11.2793 -70.0195 11.2793 -35.2051 C 11.2793 -0.390625 40.0879 28.3691 74.8535 28.3691 Z M 74.8535 19.2871 C 44.6777 19.2871 20.4102 -5.0293 20.4102 -35.2051 C 20.4102 -65.3809 44.6289 -89.6973 74.8047 -89.6973 C 105.029 -89.6973 129.297 -65.3809 129.346 -35.2051 C 129.395 -5.0293 105.078 19.2871 74.8535 19.2871 Z M 74.8535 -38.5254 C 84.082 -38.4277 91.5039 -46.2891 91.5039 -56.6895 C 91.5039 -66.4062 84.082 -74.4629 74.8535 -74.4629 C 65.625 -74.4629 58.252 -66.4062 58.252 -56.6895 C 58.252 -46.2891 65.625 -38.5742 74.8535 -38.5254 Z M 44.8242 -2.68555 L 104.883 -2.68555 C 107.178 -2.68555 108.252 -4.19922 108.252 -6.34766 C 108.252 -13.4766 97.6074 -32.2266 74.8535 -32.2266 C 52.1484 -32.2266 41.4551 -13.4766 41.4551 -6.34766 C 41.4551 -4.19922 42.5293 -2.68555 44.8242 -2.68555 Z"/>
  </g>
</svg>